<svg xmlns="http://www.w3.org/2000/svg" viewBox="0 0 1440 900" width="1440" height="900" role="img" aria-label="SuperClini dashboard preview placeholder">
  <defs>
    <linearGradient id="bg" x1="0" y1="0" x2="0" y2="1">
      <stop offset="0" stop-color="#ffffff"/>
      <stop offset="1" stop-color="#f8fafc"/>
    </linearGradient>
    <linearGradient id="brand" x1="0" y1="0" x2="1" y2="1">
      <stop offset="0" stop-color="#0ea5e9"/>
      <stop offset="1" stop-color="#06b6d4"/>
    </linearGradient>
    <linearGradient id="cyanFill" x1="0" y1="0" x2="0" y2="1">
      <stop offset="0" stop-color="#0ea5e9" stop-opacity="0.18"/>
      <stop offset="1" stop-color="#0ea5e9" stop-opacity="0"/>
    </linearGradient>
    <filter id="soft" x="-5%" y="-5%" width="110%" height="110%">
      <feGaussianBlur stdDeviation="0.6"/>
    </filter>
  </defs>

  <!-- App background -->
  <rect width="1440" height="900" fill="url(#bg)"/>

  <!-- Top app bar -->
  <rect x="0" y="0" width="1440" height="64" fill="#ffffff"/>
  <rect x="0" y="63" width="1440" height="1" fill="#e2e8f0"/>
  <!-- Logo block -->
  <rect x="24" y="20" width="24" height="24" rx="6" fill="url(#brand)"/>
  <rect x="56" y="26" width="86" height="12" rx="3" fill="#0f172a"/>
  <!-- Breadcrumb -->
  <rect x="180" y="28" width="46" height="9" rx="2" fill="#cbd5e1"/>
  <rect x="234" y="28" width="6" height="9" rx="1" fill="#e2e8f0"/>
  <rect x="248" y="26" width="68" height="12" rx="3" fill="#0f172a"/>
  <!-- Search -->
  <rect x="540" y="14" width="360" height="36" rx="10" fill="#f1f5f9"/>
  <circle cx="558" cy="32" r="6" fill="none" stroke="#94a3b8" stroke-width="1.5"/>
  <line x1="563" y1="37" x2="568" y2="42" stroke="#94a3b8" stroke-width="1.5" stroke-linecap="round"/>
  <rect x="576" y="28" width="100" height="9" rx="2" fill="#cbd5e1"/>
  <rect x="868" y="22" width="20" height="20" rx="4" fill="#e2e8f0"/>
  <!-- Right cluster -->
  <rect x="1216" y="14" width="120" height="36" rx="18" fill="url(#brand)"/>
  <rect x="1238" y="28" width="76" height="9" rx="2" fill="#ffffff"/>
  <circle cx="1366" cy="32" r="14" fill="#f1f5f9"/>
  <text x="1366" y="36" font-family="Inter, sans-serif" font-size="11" font-weight="600" fill="#475569" text-anchor="middle">JM</text>
  <circle cx="1410" cy="32" r="3" fill="#0ea5e9"/>
  <rect x="1399" y="22" width="20" height="20" rx="4" fill="#f8fafc" fill-opacity="0"/>

  <!-- Sidebar -->
  <rect x="0" y="64" width="240" height="836" fill="#ffffff"/>
  <rect x="240" y="64" width="1" height="836" fill="#e2e8f0"/>
  <!-- Section: workspace -->
  <rect x="24" y="92" width="80" height="9" rx="2" fill="#94a3b8"/>
  <!-- Active item: Agenda -->
  <rect x="16" y="116" width="208" height="40" rx="10" fill="#e0f2fe"/>
  <rect x="32" y="132" width="14" height="14" rx="3" fill="#0284c7"/>
  <rect x="56" y="134" width="56" height="10" rx="2" fill="#0c4a6e"/>
  <rect x="200" y="132" width="20" height="14" rx="7" fill="#0ea5e9"/>
  <text x="210" y="143" font-family="Inter, sans-serif" font-size="9" font-weight="600" fill="#ffffff" text-anchor="middle">8</text>
  <!-- Other items -->
  <g font-family="Inter, sans-serif" font-size="11" fill="#475569">
    <rect x="32" y="174" width="14" height="14" rx="3" fill="#cbd5e1"/>
    <text x="56" y="185">Pacientes</text>
    <rect x="32" y="206" width="14" height="14" rx="3" fill="#cbd5e1"/>
    <text x="56" y="217">Prontuário</text>
    <rect x="32" y="238" width="14" height="14" rx="3" fill="#cbd5e1"/>
    <text x="56" y="249">Financeiro</text>
    <rect x="32" y="270" width="14" height="14" rx="3" fill="#cbd5e1"/>
    <text x="56" y="281">Casos com IA</text>
    <rect x="32" y="302" width="14" height="14" rx="3" fill="#cbd5e1"/>
    <text x="56" y="313">Imagens 3D</text>
    <rect x="32" y="334" width="14" height="14" rx="3" fill="#cbd5e1"/>
    <text x="56" y="345">WhatsApp Sofía</text>
    <rect x="32" y="366" width="14" height="14" rx="3" fill="#cbd5e1"/>
    <text x="56" y="377">Relatórios</text>
  </g>
  <!-- Section: admin -->
  <rect x="24" y="416" width="60" height="9" rx="2" fill="#94a3b8"/>
  <g font-family="Inter, sans-serif" font-size="11" fill="#475569">
    <rect x="32" y="444" width="14" height="14" rx="3" fill="#cbd5e1"/>
    <text x="56" y="455">Configurações</text>
    <rect x="32" y="476" width="14" height="14" rx="3" fill="#cbd5e1"/>
    <text x="56" y="487">Equipe</text>
  </g>
  <!-- Plan card bottom -->
  <rect x="16" y="780" width="208" height="92" rx="12" fill="#0f172a"/>
  <rect x="32" y="800" width="80" height="9" rx="2" fill="#38bdf8"/>
  <rect x="32" y="820" width="120" height="11" rx="2" fill="#ffffff"/>
  <rect x="32" y="844" width="176" height="20" rx="10" fill="#0ea5e9"/>
  <rect x="68" y="850" width="104" height="8" rx="2" fill="#ffffff"/>

  <!-- Main content -->
  <!-- Page header -->
  <rect x="272" y="96" width="180" height="20" rx="3" fill="#0f172a"/>
  <rect x="272" y="124" width="320" height="11" rx="2" fill="#94a3b8"/>
  <!-- Date pill -->
  <rect x="1040" y="96" width="180" height="38" rx="10" fill="#ffffff"/>
  <rect x="1040" y="96" width="180" height="38" rx="10" fill="none" stroke="#e2e8f0"/>
  <rect x="1056" y="111" width="14" height="14" rx="3" fill="#0ea5e9"/>
  <rect x="1080" y="113" width="100" height="10" rx="2" fill="#0f172a"/>
  <rect x="1192" y="111" width="14" height="14" rx="3" fill="#94a3b8"/>
  <!-- New appointment button -->
  <rect x="1240" y="96" width="172" height="38" rx="10" fill="url(#brand)"/>
  <rect x="1264" y="113" width="124" height="10" rx="2" fill="#ffffff"/>

  <!-- KPI cards row -->
  <g>
    <!-- KPI 1 -->
    <rect x="272" y="160" width="272" height="116" rx="14" fill="#ffffff"/>
    <rect x="272" y="160" width="272" height="116" rx="14" fill="none" stroke="#e2e8f0"/>
    <rect x="296" y="184" width="68" height="9" rx="2" fill="#94a3b8"/>
    <rect x="296" y="208" width="120" height="22" rx="3" fill="#0f172a"/>
    <rect x="296" y="244" width="60" height="9" rx="2" fill="#10b981"/>
    <rect x="362" y="244" width="40" height="9" rx="2" fill="#94a3b8"/>
    <!-- mini chart -->
    <path d="M 460 252 Q 470 244 480 248 T 500 240 T 520 232" fill="none" stroke="#0ea5e9" stroke-width="1.5" stroke-linecap="round"/>
    <circle cx="520" cy="232" r="3" fill="#0ea5e9"/>
    <!-- KPI 2 -->
    <rect x="560" y="160" width="272" height="116" rx="14" fill="#ffffff"/>
    <rect x="560" y="160" width="272" height="116" rx="14" fill="none" stroke="#e2e8f0"/>
    <rect x="584" y="184" width="80" height="9" rx="2" fill="#94a3b8"/>
    <rect x="584" y="208" width="100" height="22" rx="3" fill="#0f172a"/>
    <rect x="584" y="244" width="80" height="9" rx="2" fill="#10b981"/>
    <path d="M 740 250 Q 752 240 764 246 T 788 232 T 812 240" fill="none" stroke="#0ea5e9" stroke-width="1.5" stroke-linecap="round"/>
    <circle cx="812" cy="240" r="3" fill="#0ea5e9"/>
    <!-- KPI 3 -->
    <rect x="848" y="160" width="272" height="116" rx="14" fill="#ffffff"/>
    <rect x="848" y="160" width="272" height="116" rx="14" fill="none" stroke="#e2e8f0"/>
    <rect x="872" y="184" width="92" height="9" rx="2" fill="#94a3b8"/>
    <rect x="872" y="208" width="80" height="22" rx="3" fill="#0f172a"/>
    <rect x="872" y="244" width="56" height="9" rx="2" fill="#f59e0b"/>
    <path d="M 1028 250 Q 1040 244 1052 248 T 1076 240 T 1100 246" fill="none" stroke="#0ea5e9" stroke-width="1.5" stroke-linecap="round"/>
    <circle cx="1100" cy="246" r="3" fill="#0ea5e9"/>
    <!-- KPI 4 -->
    <rect x="1136" y="160" width="276" height="116" rx="14" fill="#0f172a"/>
    <rect x="1160" y="184" width="100" height="9" rx="2" fill="#38bdf8"/>
    <rect x="1160" y="208" width="120" height="22" rx="3" fill="#ffffff"/>
    <rect x="1160" y="244" width="80" height="9" rx="2" fill="#a5f3fc"/>
    <path d="M 1316 250 L 1380 240 L 1396 244" fill="none" stroke="#38bdf8" stroke-width="1.5" stroke-linecap="round"/>
    <circle cx="1396" cy="244" r="3" fill="#38bdf8"/>
  </g>

  <!-- Agenda timeline -->
  <rect x="272" y="304" width="848" height="556" rx="14" fill="#ffffff"/>
  <rect x="272" y="304" width="848" height="556" rx="14" fill="none" stroke="#e2e8f0"/>
  <rect x="296" y="328" width="120" height="14" rx="3" fill="#0f172a"/>
  <!-- View toggle -->
  <rect x="996" y="324" width="100" height="28" rx="8" fill="#f1f5f9"/>
  <rect x="996" y="324" width="50" height="28" rx="8" fill="#ffffff"/>
  <rect x="996" y="324" width="50" height="28" rx="8" fill="none" stroke="#e2e8f0"/>
  <rect x="1008" y="335" width="26" height="6" rx="2" fill="#0f172a"/>
  <rect x="1058" y="335" width="26" height="6" rx="2" fill="#94a3b8"/>

  <!-- Hour grid header -->
  <g font-family="Inter, sans-serif" font-size="10" fill="#94a3b8">
    <text x="312" y="378">08:00</text>
    <text x="312" y="416">09:00</text>
    <text x="312" y="454">10:00</text>
    <text x="312" y="492">11:00</text>
    <text x="312" y="530">12:00</text>
    <text x="312" y="568">13:00</text>
    <text x="312" y="606">14:00</text>
    <text x="312" y="644">15:00</text>
    <text x="312" y="682">16:00</text>
    <text x="312" y="720">17:00</text>
    <text x="312" y="758">18:00</text>
  </g>
  <!-- Vertical hour lines -->
  <g stroke="#e2e8f0" stroke-width="1">
    <line x1="364" y1="364" x2="364" y2="836"/>
    <line x1="544" y1="364" x2="544" y2="836"/>
    <line x1="724" y1="364" x2="724" y2="836"/>
    <line x1="904" y1="364" x2="904" y2="836"/>
  </g>
  <!-- Horizontal hour lines -->
  <g stroke="#f1f5f9" stroke-width="1">
    <line x1="364" y1="392" x2="1100" y2="392"/>
    <line x1="364" y1="430" x2="1100" y2="430"/>
    <line x1="364" y1="468" x2="1100" y2="468"/>
    <line x1="364" y1="506" x2="1100" y2="506"/>
    <line x1="364" y1="544" x2="1100" y2="544"/>
    <line x1="364" y1="582" x2="1100" y2="582"/>
    <line x1="364" y1="620" x2="1100" y2="620"/>
    <line x1="364" y1="658" x2="1100" y2="658"/>
    <line x1="364" y1="696" x2="1100" y2="696"/>
    <line x1="364" y1="734" x2="1100" y2="734"/>
  </g>
  <!-- Dentist column headers -->
  <g font-family="Inter, sans-serif" font-size="10" font-weight="600">
    <circle cx="384" cy="372" r="5" fill="#0ea5e9"/>
    <text x="396" y="376" fill="#0f172a">Dra. Carolina</text>
    <circle cx="564" cy="372" r="5" fill="#8b5cf6"/>
    <text x="576" y="376" fill="#0f172a">Dr. Felipe</text>
    <circle cx="744" cy="372" r="5" fill="#10b981"/>
    <text x="756" y="376" fill="#0f172a">Dra. Sofía</text>
    <circle cx="924" cy="372" r="5" fill="#f59e0b"/>
    <text x="936" y="376" fill="#0f172a">Dr. Matías</text>
  </g>

  <!-- Appointment blocks - Carolina (cyan) -->
  <g>
    <rect x="368" y="396" width="172" height="60" rx="6" fill="#e0f2fe"/>
    <rect x="368" y="396" width="3" height="60" fill="#0ea5e9"/>
    <rect x="380" y="408" width="100" height="9" rx="2" fill="#0c4a6e"/>
    <rect x="380" y="424" width="74" height="8" rx="2" fill="#0284c7"/>
    <rect x="380" y="440" width="56" height="7" rx="2" fill="#0369a1"/>

    <rect x="368" y="468" width="172" height="36" rx="6" fill="#e0f2fe"/>
    <rect x="368" y="468" width="3" height="36" fill="#0ea5e9"/>
    <rect x="380" y="480" width="80" height="8" rx="2" fill="#0c4a6e"/>
    <rect x="380" y="494" width="56" height="7" rx="2" fill="#0369a1"/>

    <rect x="368" y="582" width="172" height="98" rx="6" fill="#e0f2fe"/>
    <rect x="368" y="582" width="3" height="98" fill="#0ea5e9"/>
    <rect x="380" y="596" width="120" height="9" rx="2" fill="#0c4a6e"/>
    <rect x="380" y="612" width="92" height="8" rx="2" fill="#0284c7"/>
    <rect x="380" y="628" width="80" height="7" rx="2" fill="#0369a1"/>
    <rect x="380" y="652" width="40" height="14" rx="4" fill="#0ea5e9"/>
  </g>

  <!-- Felipe (violet) -->
  <g>
    <rect x="548" y="430" width="172" height="74" rx="6" fill="#ede9fe"/>
    <rect x="548" y="430" width="3" height="74" fill="#8b5cf6"/>
    <rect x="560" y="444" width="100" height="9" rx="2" fill="#4c1d95"/>
    <rect x="560" y="460" width="76" height="8" rx="2" fill="#7c3aed"/>
    <rect x="560" y="476" width="60" height="7" rx="2" fill="#6d28d9"/>

    <rect x="548" y="544" width="172" height="38" rx="6" fill="#ede9fe"/>
    <rect x="548" y="544" width="3" height="38" fill="#8b5cf6"/>
    <rect x="560" y="556" width="92" height="8" rx="2" fill="#4c1d95"/>
    <rect x="560" y="570" width="56" height="7" rx="2" fill="#6d28d9"/>

    <rect x="548" y="620" width="172" height="60" rx="6" fill="#ede9fe"/>
    <rect x="548" y="620" width="3" height="60" fill="#8b5cf6"/>
    <rect x="560" y="634" width="104" height="9" rx="2" fill="#4c1d95"/>
    <rect x="560" y="650" width="80" height="8" rx="2" fill="#7c3aed"/>
    <rect x="560" y="666" width="56" height="7" rx="2" fill="#6d28d9"/>
  </g>

  <!-- Sofía (emerald) -->
  <g>
    <rect x="728" y="396" width="172" height="74" rx="6" fill="#d1fae5"/>
    <rect x="728" y="396" width="3" height="74" fill="#10b981"/>
    <rect x="740" y="410" width="92" height="9" rx="2" fill="#064e3b"/>
    <rect x="740" y="426" width="68" height="8" rx="2" fill="#059669"/>
    <rect x="740" y="442" width="56" height="7" rx="2" fill="#047857"/>

    <rect x="728" y="506" width="172" height="98" rx="6" fill="#d1fae5"/>
    <rect x="728" y="506" width="3" height="98" fill="#10b981"/>
    <rect x="740" y="520" width="116" height="9" rx="2" fill="#064e3b"/>
    <rect x="740" y="536" width="92" height="8" rx="2" fill="#059669"/>
    <rect x="740" y="552" width="80" height="7" rx="2" fill="#047857"/>
    <rect x="740" y="576" width="48" height="14" rx="4" fill="#10b981"/>

    <rect x="728" y="658" width="172" height="38" rx="6" fill="#d1fae5"/>
    <rect x="728" y="658" width="3" height="38" fill="#10b981"/>
    <rect x="740" y="670" width="80" height="8" rx="2" fill="#064e3b"/>
    <rect x="740" y="684" width="56" height="7" rx="2" fill="#047857"/>
  </g>

  <!-- Matías (amber) -->
  <g>
    <rect x="908" y="430" width="172" height="60" rx="6" fill="#fef3c7"/>
    <rect x="908" y="430" width="3" height="60" fill="#f59e0b"/>
    <rect x="920" y="444" width="100" height="9" rx="2" fill="#78350f"/>
    <rect x="920" y="460" width="76" height="8" rx="2" fill="#d97706"/>
    <rect x="920" y="476" width="56" height="7" rx="2" fill="#b45309"/>

    <rect x="908" y="544" width="172" height="98" rx="6" fill="#fef3c7"/>
    <rect x="908" y="544" width="3" height="98" fill="#f59e0b"/>
    <rect x="920" y="558" width="116" height="9" rx="2" fill="#78350f"/>
    <rect x="920" y="574" width="92" height="8" rx="2" fill="#d97706"/>
    <rect x="920" y="590" width="80" height="7" rx="2" fill="#b45309"/>

    <rect x="908" y="696" width="172" height="36" rx="6" fill="#fef3c7"/>
    <rect x="908" y="696" width="3" height="36" fill="#f59e0b"/>
    <rect x="920" y="708" width="92" height="8" rx="2" fill="#78350f"/>
    <rect x="920" y="722" width="56" height="7" rx="2" fill="#b45309"/>
  </g>

  <!-- Now line -->
  <line x1="364" y1="540" x2="1100" y2="540" stroke="#ef4444" stroke-width="1.5" stroke-dasharray="4 4"/>
  <circle cx="364" cy="540" r="4" fill="#ef4444"/>

  <!-- Right rail card -->
  <rect x="1136" y="304" width="276" height="280" rx="14" fill="#ffffff"/>
  <rect x="1136" y="304" width="276" height="280" rx="14" fill="none" stroke="#e2e8f0"/>
  <rect x="1160" y="328" width="120" height="11" rx="2" fill="#0f172a"/>
  <rect x="1160" y="346" width="180" height="9" rx="2" fill="#94a3b8"/>
  <!-- Sofía chat preview -->
  <rect x="1160" y="376" width="200" height="40" rx="10" fill="#f1f5f9"/>
  <rect x="1172" y="388" width="170" height="6" rx="2" fill="#475569"/>
  <rect x="1172" y="400" width="120" height="6" rx="2" fill="#94a3b8"/>
  <rect x="1196" y="424" width="200" height="40" rx="10" fill="#0ea5e9"/>
  <rect x="1208" y="436" width="170" height="6" rx="2" fill="#ffffff"/>
  <rect x="1208" y="448" width="100" height="6" rx="2" fill="#bae6fd"/>
  <rect x="1160" y="472" width="160" height="40" rx="10" fill="#f1f5f9"/>
  <rect x="1172" y="484" width="130" height="6" rx="2" fill="#475569"/>
  <rect x="1172" y="496" width="80" height="6" rx="2" fill="#94a3b8"/>
  <!-- AI badge -->
  <rect x="1160" y="528" width="252" height="40" rx="10" fill="#0f172a"/>
  <circle cx="1180" cy="548" r="8" fill="url(#brand)"/>
  <rect x="1196" y="540" width="120" height="7" rx="2" fill="#ffffff"/>
  <rect x="1196" y="552" width="80" height="6" rx="2" fill="#94a3b8"/>

  <!-- Right rail card 2 -->
  <rect x="1136" y="608" width="276" height="252" rx="14" fill="#ffffff"/>
  <rect x="1136" y="608" width="276" height="252" rx="14" fill="none" stroke="#e2e8f0"/>
  <rect x="1160" y="632" width="140" height="11" rx="2" fill="#0f172a"/>
  <!-- Mini chart fill -->
  <path d="M 1160 760 L 1160 712 Q 1180 700 1200 720 T 1240 716 T 1280 696 T 1320 712 T 1360 692 T 1392 700 L 1392 760 Z" fill="url(#cyanFill)"/>
  <path d="M 1160 712 Q 1180 700 1200 720 T 1240 716 T 1280 696 T 1320 712 T 1360 692 T 1392 700" fill="none" stroke="#0ea5e9" stroke-width="1.5" stroke-linecap="round"/>
  <circle cx="1392" cy="700" r="4" fill="#0ea5e9"/>
  <rect x="1160" y="800" width="80" height="9" rx="2" fill="#10b981"/>
  <rect x="1160" y="820" width="120" height="9" rx="2" fill="#94a3b8"/>
</svg>
